# xmcd
#
# Track frame offsets:
# 150
# 25813
# 47105
# 77321
# 109976
# 122963
# 151876
# 179761
# 199782
# 220143
# 239829
# 281244
# 318899
#
# Disc length: 4547 seconds
#
# Revision: 0
# Processed by: cddbd v1.4PL0 Copyright (c) Steve Scherf et al.
# Submitted via: Audion 3.0.2 (http://www.panic.com/audion/)
#
DISCID=bd11c10d
DTITLE=Dixie Chicks - An Evining With The Dixie Chicks
DYEAR=1900
DGENRE=
TTITLE0=Long Time Gone
TTITLE1=Landslide
TTITLE2=Travelin' Soldier
TTITLE3=Truth #2
TTITLE4=White Trash Wedding
TTITLE5=A Home
TTITLE6=More Love
TTITLE7=I Belive In Love
TTITLE8=Tortured, Tangled Hearts
TTITLE9=Lil Jack Blade
TTITLE10=Godspeed
TTITLE11=Top of the World
TTITLE12=Wide Open Spaces
EXTD=
EXTT0=
EXTT1=
EXTT2=
EXTT3=
EXTT4=
EXTT5=
EXTT6=
EXTT7=
EXTT8=
EXTT9=
EXTT10=
EXTT11=
EXTT12=
PLAYORDER=
